<?xml version="1.0" encoding="utf-8"?><svg viewBox="0 0 60 60" xmlns="http://www.w3.org/2000/svg" xmlns:xlink="http://www.w3.org/1999/xlink"><style>:root>svg{display:none}:root>svg:target{display:block}</style><svg fill="none" viewBox="0 0 8 5" id="arr-down" xmlns="http://www.w3.org/2000/svg"><path d="M7 1L4 4 1 1" stroke="#76A713" stroke-width="1.5" stroke-linecap="round" stroke-linejoin="round"/></svg><svg viewBox="0 0 16 8" id="arr-next" xmlns="http://www.w3.org/2000/svg"><path d="M15.354 4.354a.5.5 0 000-.708L12.172.464a.5.5 0 10-.708.708L14.293 4l-2.829 2.828a.5.5 0 10.708.708l3.182-3.182zM0 4.5h15v-1H0v1z"/></svg><svg viewBox="0 0 16 8" id="arr-prev" xmlns="http://www.w3.org/2000/svg"><path d="M.646 3.646a.5.5 0 000 .708l3.182 3.182a.5.5 0 10.708-.708L1.707 4l2.829-2.828a.5.5 0 00-.708-.708L.646 3.646zM16 3.5H1v1h15v-1z"/></svg><svg fill="none" viewBox="0 0 24 20" id="cart" xmlns="http://www.w3.org/2000/svg"><path d="M1 6l1.499.26.694 8.266c.055.675.62 1.194 1.297 1.191h7.86a1.297 1.297 0 001.286-1.114l.684-4.725a.967.967 0 00-.818-1.094c-.046-.007-10.763-.01-10.763-.01M9.196 11.437h1.998" stroke="#000" stroke-width="1.5" stroke-linecap="round" stroke-linejoin="round"/><path fill-rule="evenodd" clip-rule="evenodd" d="M4.173 18.215a.392.392 0 110 .784.392.392 0 010-.784zM12.301 18.215a.393.393 0 110 .785.393.393 0 010-.785z" fill="#000" stroke="#000" stroke-width="1.5" stroke-linecap="round" stroke-linejoin="round"/><circle cx="17.5" cy="6.5" r="6.5" fill="#76A713"/><path d="M19.136 8.312c-.384.528-.923.792-1.616.792-.693 0-1.235-.264-1.624-.792-.384-.528-.576-1.232-.576-2.112 0-.88.192-1.584.576-2.112.39-.528.93-.792 1.624-.792.693 0 1.232.264 1.616.792.39.528.584 1.232.584 2.112 0 .88-.195 1.584-.584 2.112zm-1.616-.104c.416 0 .733-.173.952-.52.219-.347.328-.843.328-1.488s-.11-1.141-.328-1.488a1.058 1.058 0 00-.952-.52c-.41 0-.728.173-.952.52-.219.347-.328.843-.328 1.488s.11 1.141.328 1.488c.224.347.541.52.952.52z" fill="#fff"/></svg><svg fill="none" viewBox="0 0 15 10" id="ct-btn" xmlns="http://www.w3.org/2000/svg"><path fill-rule="evenodd" clip-rule="evenodd" d="M6.53 5.005v.296c.01 1.17.081 2.214.203 2.876 0 .012.133.668.217.887.133.316.373.584.674.753.24.121.493.183.758.183.208-.01.55-.114.796-.202l.203-.078c1.347-.535 3.923-2.284 4.909-3.353l.073-.075.324-.35c.205-.268.313-.596.313-.948 0-.316-.096-.632-.29-.887a2.985 2.985 0 00-.232-.279l-.316-.33C13.075 2.396 10.72.852 9.5.34c0-.011-.758-.328-1.12-.34h-.047C7.78 0 7.263.316 6.998.826c-.072.14-.141.413-.194.653l-.095.453c-.108.73-.18 1.847-.18 3.073zm-5.277-1.27C.56 3.735 0 4.3 0 5c0 .698.56 1.265 1.253 1.265l3.082-.273A.987.987 0 005.318 5a.988.988 0 00-.983-.993l-3.082-.272z" fill="#76A713"/></svg><svg viewBox="0 0 7 13" id="facebook" xmlns="http://www.w3.org/2000/svg"><path d="M4.55 7.475h1.625l.65-2.6H4.55v-1.3c0-.67 0-1.3 1.3-1.3h.975V.091A18.308 18.308 0 004.968 0C3.203 0 1.95 1.077 1.95 3.055v1.82H0v2.6h1.95V13h2.6V7.475z"/></svg><svg viewBox="0 0 14 13" id="instagram" xmlns="http://www.w3.org/2000/svg"><path d="M6.854 0c1.767 0 1.987.006 2.68.039.692.032 1.163.141 1.578.302.429.165.79.389 1.152.75.33.325.586.718.75 1.152.16.414.269.885.302 1.578.03.693.038.913.038 2.679 0 1.766-.006 1.986-.038 2.68-.033.692-.142 1.163-.303 1.578a3.174 3.174 0 01-.75 1.151c-.324.33-.717.586-1.151.75-.414.16-.886.27-1.578.302-.693.03-.913.039-2.68.039-1.766 0-1.986-.007-2.679-.039-.692-.033-1.163-.142-1.578-.302a3.178 3.178 0 01-1.152-.75 3.187 3.187 0 01-.75-1.152c-.16-.414-.269-.885-.302-1.578C.363 8.486.354 8.266.354 6.5c0-1.766.007-1.986.04-2.68.032-.692.14-1.163.302-1.577.162-.435.418-.828.75-1.152C1.77.76 2.162.504 2.596.34 3.012.18 3.482.071 4.175.04 4.868.009 5.088 0 6.855 0zm0 3.25a3.25 3.25 0 100 6.5 3.25 3.25 0 000-6.5zm4.225-.163a.812.812 0 10-1.624 0 .812.812 0 001.624 0zM6.854 4.55a1.95 1.95 0 110 3.9 1.95 1.95 0 010-3.9z"/></svg><svg viewBox="0 0 15 13" id="linkedin" xmlns="http://www.w3.org/2000/svg"><path d="M3.243 1.445a1.444 1.444 0 11-2.888-.001 1.444 1.444 0 012.888.001zm.044 2.513H.397V13h2.89V3.958zm4.564 0H4.976V13h2.846V8.255c0-2.643 3.445-2.888 3.445 0V13h2.852V7.273c0-4.456-5.098-4.29-6.297-2.101l.029-1.214z"/></svg><svg fill="none" viewBox="0 0 20 16" id="mail" xmlns="http://www.w3.org/2000/svg"><path fill-rule="evenodd" clip-rule="evenodd" d="M14.939 0c1.341 0 2.631.471 3.58 1.316C19.469 2.16 20 3.298 20 4.49v7.022C20 13.991 17.73 16 14.939 16H5.06C2.269 16 0 13.991 0 11.511V4.49C0 2.009 2.259 0 5.06 0h9.879zm1.591 5.813l.08-.07a.63.63 0 00-.011-.89.885.885 0 00-.529-.23.819.819 0 00-.561.177L11 8a1.72 1.72 0 01-2 0L4.5 4.8c-.311-.204-.741-.178-1 .062-.27.24-.3.622-.071.89l.131.115 4.55 3.155a3.4 3.4 0 001.95.605c.709 0 1.4-.214 1.959-.605l4.511-3.209z" fill="#76A713"/></svg><svg fill="none" viewBox="0 0 14 16" id="map" xmlns="http://www.w3.org/2000/svg"><path fill-rule="evenodd" clip-rule="evenodd" d="M0 6.654C0 2.974 3.075 0 6.795 0c3.73 0 6.805 2.974 6.805 6.654 0 1.855-.674 3.576-1.784 5.035a17.65 17.65 0 01-4.433 4.113c-.389.254-.74.274-1.167 0a17.312 17.312 0 01-4.432-4.113C.674 10.23 0 8.51 0 6.654zm4.555.207c0 1.233 1.006 2.203 2.24 2.203 1.234 0 2.25-.97 2.25-2.203a2.26 2.26 0 00-2.25-2.24 2.25 2.25 0 00-2.24 2.24z" fill="#76A713"/></svg><svg fill="none" viewBox="0 0 15 15" id="search" xmlns="http://www.w3.org/2000/svg"><path d="M7.08 13.158A6.08 6.08 0 107.078 1a6.08 6.08 0 000 12.158zM11.308 11.623L13.69 14" stroke="#000" stroke-width="1.5" stroke-linecap="round" stroke-linejoin="round"/></svg><svg fill="none" viewBox="0 0 60 41" id="sh-1" xmlns="http://www.w3.org/2000/svg"><path d="M49.053 29.832a5.547 5.547 0 00-3.91 1.609c-1.05 1.048-1.637 2.413-1.637 3.875 0 1.462.575 2.827 1.638 3.875a5.57 5.57 0 003.91 1.609c3.005 0 5.448-2.462 5.448-5.484s-2.443-5.484-5.449-5.484zm0 8.53c-1.686 0-3.103-1.389-3.103-3.046 0-1.657 1.417-3.047 3.103-3.047 1.662 0 3.006 1.365 3.006 3.047 0 1.682-1.344 3.047-3.006 3.047zm1.417-26.797a1.188 1.188 0 00-.818-.317h-6.268c-.672 0-1.221.548-1.221 1.219v9.992c0 .67.55 1.22 1.221 1.22h9.945c.672 0 1.222-.55 1.222-1.22v-6.69c0-.341-.147-.67-.403-.902l-3.678-3.302zm1.638 9.676h-7.502v-7.568h4.57l2.931 2.632v4.936zm-32.89 8.591a5.547 5.547 0 00-3.91 1.609c-1.05 1.048-1.637 2.413-1.637 3.875 0 1.462.575 2.827 1.638 3.875a5.57 5.57 0 003.91 1.609c3.005 0 5.448-2.462 5.448-5.484s-2.443-5.484-5.449-5.484zm0 8.53c-1.686 0-3.103-1.389-3.103-3.046 0-1.657 1.417-3.047 3.103-3.047 1.662 0 3.006 1.365 3.006 3.047 0 1.682-1.344 3.047-3.006 3.047zm-8.149-7.03H8.613V28.09c0-.67-.55-1.219-1.221-1.219-.672 0-1.222.548-1.222 1.219v4.46c0 .67.55 1.219 1.222 1.219h3.677c.672 0 1.222-.549 1.222-1.22 0-.67-.55-1.218-1.222-1.218zm6.194-6.642c0-.67-.55-1.219-1.222-1.219H1.221C.55 23.471 0 24.019 0 24.69c0 .67.55 1.218 1.222 1.218h14.82c.671 0 1.221-.536 1.221-1.218zm-13.561-4.4l14.82.086c.672 0 1.221-.537 1.234-1.207a1.208 1.208 0 00-1.21-1.23l-14.82-.086h-.012c-.672 0-1.222.536-1.222 1.206a1.208 1.208 0 001.21 1.231zm2.492-5.532h14.82c.672 0 1.222-.549 1.222-1.219s-.55-1.219-1.222-1.219H6.194c-.672 0-1.221.549-1.221 1.22 0 .67.55 1.218 1.221 1.218zm53.354-1.645L50.8 5.886a1.205 1.205 0 00-.782-.28H39.731V1.219c0-.67-.55-1.219-1.221-1.219H7.392C6.72 0 6.17.548 6.17 1.219v8.92c0 .67.55 1.219 1.222 1.219.672 0 1.221-.549 1.221-1.219V2.437H37.3v28.894H27.282c-.672 0-1.222.549-1.222 1.219s.55 1.219 1.222 1.219h14.917c.672 0 1.222-.549 1.222-1.22 0-.67-.55-1.218-1.222-1.218h-2.456V8.043h9.848l7.965 6.58-.085 16.684h-1.27c-.673 0-1.222.548-1.222 1.218 0 .67.55 1.22 1.221 1.22h2.48c.672 0 1.222-.537 1.222-1.207L60 14.063a1.286 1.286 0 00-.452-.95z" fill="#000"/></svg><svg fill="none" viewBox="0 0 60 60" id="sh-2" xmlns="http://www.w3.org/2000/svg"><path d="M51.181 32.89v-4.765h1.553c.647 0 1.172-.525 1.172-1.172v-7.031c0-.127-.02-.253-.06-.373L47.556.8C47.397.322 46.95 0 46.446 0H7.46c-.503 0-.95.322-1.11.8L.06 19.55c-.04.12-.06.245-.06.372v7.031c0 .647.525 1.172 1.172 1.172h1.553v19.922c0 .647.524 1.172 1.172 1.172h28.365C33.744 55.395 39.312 60 45.937 60 53.692 60 60 53.692 60 45.938c0-5.902-3.654-10.965-8.819-13.048zm-17.24-7.109v-4.687h17.621v4.687H33.941zm-11.632 2.344h9.288v4.535c0 .194-.06.307-.097.332-.007.005-.039.003-.086-.017l-4.02-1.633a1.173 1.173 0 00-.882 0l-4.02 1.633c-.047.02-.079.021-.086.017-.037-.025-.097-.138-.097-.332v-4.535zm0-2.344v-4.687h9.288v4.687H22.31zm7.955-23.437l1.241 16.406h-9.104l1.241-16.406h6.622zM51.105 18.75h-17.25l-1.24-16.406h12.988l5.502 16.406zM8.303 2.344h12.989L20.05 18.75H2.8L8.303 2.344zM2.343 25.78v-4.687h17.622v4.687H2.344zM5.07 46.875V44.53h5.272a1.172 1.172 0 000-2.344H5.07V28.125h14.896v4.535c0 .962.413 1.792 1.132 2.276.67.45 1.5.527 2.278.21l3.578-1.454 3.578 1.455c.317.128.642.192.961.192.466 0 .92-.136 1.317-.403.719-.484 1.132-1.314 1.132-2.276v-4.535h14.896v4.051a14.064 14.064 0 00-2.9-.3c-7.754 0-14.062 6.308-14.062 14.062 0 .315.011.627.032.937H5.069zm40.868 10.781c-6.461 0-11.718-5.257-11.718-11.718 0-6.462 5.257-11.72 11.718-11.72 6.462 0 11.72 5.258 11.72 11.72 0 6.461-5.258 11.718-11.72 11.718z" fill="#000"/><path d="M15.614 42.187a1.172 1.172 0 100 2.344h.001a1.172 1.172 0 100-2.344zM48.97 41.25h-5.58l.344-.343a1.172 1.172 0 00-1.658-1.657l-2.343 2.343a1.172 1.172 0 000 1.658l2.343 2.343a1.168 1.168 0 001.658 0c.457-.457.457-1.2 0-1.657l-.344-.343h5.58a2.346 2.346 0 012.343 2.343 2.346 2.346 0 01-2.344 2.344h-9.58a1.172 1.172 0 000 2.344h9.58a4.693 4.693 0 004.688-4.688 4.693 4.693 0 00-4.688-4.687z" fill="#000"/></svg><svg fill="none" viewBox="0 0 60 55" id="sh-3" xmlns="http://www.w3.org/2000/svg"><path d="M55.994 7.161a4.54 4.54 0 00-4.099 4.74l.181 7.422a5.699 5.699 0 00-4.58 3.218l-2.712 5.695a6.525 6.525 0 01-1.8 2.273l-.563.452a11.45 11.45 0 00-4.296 9.474l-1.109-.527a1.007 1.007 0 00-1.343.476L32.7 46.628a1.008 1.008 0 00.476 1.343l13.704 6.527a1.005 1.005 0 001.342-.477l2.974-6.245a1.007 1.007 0 00-.476-1.342l-.585-.279-.146-1.953a2.95 2.95 0 01.67-2.108l7.097-8.588c.015-.017.028-.035.042-.053a11.775 11.775 0 002.201-7.011 1.066 1.066 0 00-.013-.143l-2.9-18.293a1.008 1.008 0 00-1.092-.845zm-9.157 45.084l-11.885-5.66 2.108-4.425 11.884 5.66-2.107 4.425zm9.344-19.996l-7.074 8.561a4.956 4.956 0 00-1.127 3.542l.06.805-7.79-3.71a9.448 9.448 0 013.431-8.914l.564-.453a8.552 8.552 0 002.359-2.978l2.712-5.695a3.69 3.69 0 013.938-2.047l-3.965 8.324a1.007 1.007 0 001.82.867l4.457-9.361a1.008 1.008 0 00-.476-1.343 5.75 5.75 0 00-.994-.364l-.187-7.644v-.026a2.527 2.527 0 011.364-2.377l2.712 17.106a9.749 9.749 0 01-1.804 5.707zM2.244 33.506l7.096 8.588a2.95 2.95 0 01.67 2.108l-.145 1.953-.585.279c-.503.239-.716.84-.476 1.342l2.974 6.245a1.006 1.006 0 001.343.477l13.703-6.527c.502-.239.715-.84.476-1.343l-2.974-6.244a1.007 1.007 0 00-1.342-.477l-1.109.528a11.451 11.451 0 00-4.296-9.475l-.564-.452a6.523 6.523 0 01-1.8-2.272l-2.712-5.695a5.699 5.699 0 00-4.58-3.218l.181-7.422a4.54 4.54 0 00-4.098-4.74 1.008 1.008 0 00-1.093.845L.013 26.3a.991.991 0 00-.012.143 11.774 11.774 0 002.243 7.064zm22.804 13.08l-11.885 5.659-2.107-4.425 11.884-5.66 2.108 4.425zM4.727 9.435a2.528 2.528 0 011.365 2.377l-.001.026-.187 7.644c-.342.09-.675.212-.994.364-.502.239-.716.84-.476 1.343l4.458 9.361a1.007 1.007 0 001.819-.866L6.746 21.36a3.688 3.688 0 013.938 2.047l2.713 5.695a8.55 8.55 0 002.358 2.979l.564.452a9.448 9.448 0 013.43 8.915l-7.79 3.71.061-.806a4.958 4.958 0 00-1.126-3.542l-7.075-8.56a9.748 9.748 0 01-1.804-5.708L4.727 9.436zM42.015 21.708c.418-.133.702-.52.705-.96V4.782a1.012 1.012 0 00-.705-.959L30.313.05a1.012 1.012 0 00-.62 0L17.986 3.822c-.418.133-.703.52-.706.959v15.968c.003.439.287.825.705.96l11.702 3.772a1.025 1.025 0 00.624 0l11.703-3.773zM31.008 23.14V9.287l9.697-3.124v13.853l-9.697 3.123zM30 2.066l8.418 2.715L30 7.495l-8.417-2.714L30 2.066zM19.296 6.164l9.697 3.123V23.14l-9.697-3.124V6.164z" fill="#000"/></svg><svg fill="none" viewBox="0 0 60 60" id="sh-4" xmlns="http://www.w3.org/2000/svg"><path d="M22.265 37.907a1.176 1.176 0 001.171-1.172c0-.308-.125-.61-.343-.828a1.18 1.18 0 00-.828-.343c-.309 0-.61.125-.829.343-.218.218-.343.52-.343.828 0 .31.125.61.343.829.218.219.52.343.829.343z" fill="#000"/><path d="M50.136 27.777V22.98h1.543a2.229 2.229 0 002.226-2.227v-9.152a2.229 2.229 0 00-2.226-2.226h-7.306a8.155 8.155 0 002.456-5.837 1.172 1.172 0 00-2.343 0 5.84 5.84 0 01-3 5.099 5.824 5.824 0 00.7-2.778C42.187 2.63 39.559 0 36.329 0a5.869 5.869 0 00-5.614 4.183 5.832 5.832 0 00-3.761-1.37c-1.431 0-2.743.516-3.761 1.37A5.869 5.869 0 0017.578 0a5.866 5.866 0 00-5.86 5.86c0 1.004.255 1.95.702 2.777a5.84 5.84 0 01-3-5.1 1.172 1.172 0 10-2.344.001c0 2.284.942 4.351 2.456 5.837H2.227A2.229 2.229 0 000 11.6v9.152c0 1.228.999 2.227 2.227 2.227H3.77v28.816a3.52 3.52 0 003.515 3.516h24.18a16.816 16.816 0 0011.66 4.687C52.43 59.999 60 52.429 60 43.124c0-6.805-4.05-12.68-9.864-15.347zM32.811 8.672V5.859a3.52 3.52 0 013.516-3.515 3.52 3.52 0 013.515 3.515 3.52 3.52 0 01-3.515 3.516h-3.516v-.703zm0 3.047h18.75v8.917h-18.75V11.72zm0 11.261h14.98v3.926a16.83 16.83 0 00-4.667-.656c-3.88 0-7.46 1.317-10.313 3.528V22.98zM23.437 8.672a3.52 3.52 0 013.516-3.516 3.52 3.52 0 013.515 3.516v.703h-7.03v-.703zm0 3.047h7.031v8.917h-7.03V11.72zm-5.86-9.375a3.52 3.52 0 013.516 3.515v3.516h-3.515a3.52 3.52 0 01-3.516-3.516 3.52 3.52 0 013.516-3.515zM2.345 20.636V11.72h18.75v8.917H2.343zm21.093 32.332V42.009a1.172 1.172 0 10-2.344 0v10.959H7.285a1.173 1.173 0 01-1.171-1.172V22.98h14.98v8.482a1.172 1.172 0 002.343 0V22.98h7.031v8.997a16.804 16.804 0 00-4.218 11.147c0 3.671 1.18 7.071 3.177 9.844h-5.99zm19.688 4.687c-8.012 0-14.53-6.518-14.53-14.53 0-8.013 6.518-14.532 14.53-14.532 8.013 0 14.531 6.519 14.531 14.531 0 8.013-6.518 14.531-14.53 14.531z" fill="#000"/><path d="M46.947 35.412a1.172 1.172 0 00-1.567.542l-6.448 13.278a1.172 1.172 0 102.109 1.024l6.448-13.278a1.172 1.172 0 00-.542-1.566zM40.164 34.754a3.726 3.726 0 00-2.652-1.099c-1.002 0-1.944.39-2.653 1.099a3.755 3.755 0 000 5.304 3.738 3.738 0 002.653 1.097 3.74 3.74 0 002.652-1.097 3.755 3.755 0 000-5.304zM38.506 38.4a1.409 1.409 0 01-1.99 0 1.409 1.409 0 01.996-2.402 1.409 1.409 0 01.995 2.402zM46.296 46.19a3.755 3.755 0 000 5.305 3.727 3.727 0 002.652 1.098c1.002 0 1.944-.39 2.652-1.098a3.755 3.755 0 000-5.304 3.755 3.755 0 00-5.304 0zm3.647 3.648a1.397 1.397 0 01-.995.411 1.408 1.408 0 010-2.813 1.409 1.409 0 01.995 2.401z" fill="#000"/></svg><svg viewBox="0 0 15 11" id="twitter" xmlns="http://www.w3.org/2000/svg"><path d="M14.354 1.306a5.564 5.564 0 01-1.595.437A2.785 2.785 0 0013.981.207c-.545.324-1.141.55-1.763.673a2.775 2.775 0 00-4.73 2.532 7.881 7.881 0 01-5.721-2.9 2.775 2.775 0 00.859 3.706 2.766 2.766 0 01-1.257-.348v.035a2.778 2.778 0 002.227 2.722c-.41.11-.839.127-1.255.048a2.778 2.778 0 002.593 1.928 5.571 5.571 0 01-4.109 1.15A7.852 7.852 0 005.08 11c5.105 0 7.898-4.23 7.898-7.898 0-.12-.004-.24-.009-.359a5.639 5.639 0 001.385-1.437z"/></svg></svg>