<?xml version="1.0" encoding="utf-8"?><svg viewBox="0 0 24 20" xmlns="http://www.w3.org/2000/svg" xmlns:xlink="http://www.w3.org/1999/xlink"><style>:root>svg{display:none}:root>svg:target{display:block}</style><svg fill="none" viewBox="0 0 8 5" id="arr-down" xmlns="http://www.w3.org/2000/svg"><path d="M7 1L4 4 1 1" stroke="#76A713" stroke-width="1.5" stroke-linecap="round" stroke-linejoin="round"/></svg><svg fill="none" viewBox="0 0 24 20" id="cart" xmlns="http://www.w3.org/2000/svg"><path d="M1 6l1.499.26.694 8.266c.055.675.62 1.194 1.297 1.191h7.86a1.297 1.297 0 001.286-1.114l.684-4.725a.967.967 0 00-.818-1.094c-.046-.007-10.763-.01-10.763-.01M9.196 11.437h1.998" stroke="#000" stroke-width="1.5" stroke-linecap="round" stroke-linejoin="round"/><path fill-rule="evenodd" clip-rule="evenodd" d="M4.173 18.215a.392.392 0 110 .784.392.392 0 010-.784zM12.301 18.215a.393.393 0 110 .785.393.393 0 010-.785z" fill="#000" stroke="#000" stroke-width="1.5" stroke-linecap="round" stroke-linejoin="round"/><circle cx="17.5" cy="6.5" r="6.5" fill="#76A713"/><path d="M19.136 8.312c-.384.528-.923.792-1.616.792-.693 0-1.235-.264-1.624-.792-.384-.528-.576-1.232-.576-2.112 0-.88.192-1.584.576-2.112.39-.528.93-.792 1.624-.792.693 0 1.232.264 1.616.792.39.528.584 1.232.584 2.112 0 .88-.195 1.584-.584 2.112zm-1.616-.104c.416 0 .733-.173.952-.52.219-.347.328-.843.328-1.488s-.11-1.141-.328-1.488a1.058 1.058 0 00-.952-.52c-.41 0-.728.173-.952.52-.219.347-.328.843-.328 1.488s.11 1.141.328 1.488c.224.347.541.52.952.52z" fill="#fff"/></svg><svg viewBox="0 0 7 13" id="facebook" xmlns="http://www.w3.org/2000/svg"><path d="M4.55 7.475h1.625l.65-2.6H4.55v-1.3c0-.67 0-1.3 1.3-1.3h.975V.091A18.308 18.308 0 004.968 0C3.203 0 1.95 1.077 1.95 3.055v1.82H0v2.6h1.95V13h2.6V7.475z"/></svg><svg viewBox="0 0 14 13" id="instagram" xmlns="http://www.w3.org/2000/svg"><path d="M6.854 0c1.767 0 1.987.006 2.68.039.692.032 1.163.141 1.578.302.429.165.79.389 1.152.75.33.325.586.718.75 1.152.16.414.269.885.302 1.578.03.693.038.913.038 2.679 0 1.766-.006 1.986-.038 2.68-.033.692-.142 1.163-.303 1.578a3.174 3.174 0 01-.75 1.151c-.324.33-.717.586-1.151.75-.414.16-.886.27-1.578.302-.693.03-.913.039-2.68.039-1.766 0-1.986-.007-2.679-.039-.692-.033-1.163-.142-1.578-.302a3.178 3.178 0 01-1.152-.75 3.187 3.187 0 01-.75-1.152c-.16-.414-.269-.885-.302-1.578C.363 8.486.354 8.266.354 6.5c0-1.766.007-1.986.04-2.68.032-.692.14-1.163.302-1.577.162-.435.418-.828.75-1.152C1.77.76 2.162.504 2.596.34 3.012.18 3.482.071 4.175.04 4.868.009 5.088 0 6.855 0zm0 3.25a3.25 3.25 0 100 6.5 3.25 3.25 0 000-6.5zm4.225-.163a.812.812 0 10-1.624 0 .812.812 0 001.624 0zM6.854 4.55a1.95 1.95 0 110 3.9 1.95 1.95 0 010-3.9z"/></svg><svg viewBox="0 0 15 13" id="linkedin" xmlns="http://www.w3.org/2000/svg"><path d="M3.243 1.445a1.444 1.444 0 11-2.888-.001 1.444 1.444 0 012.888.001zm.044 2.513H.397V13h2.89V3.958zm4.564 0H4.976V13h2.846V8.255c0-2.643 3.445-2.888 3.445 0V13h2.852V7.273c0-4.456-5.098-4.29-6.297-2.101l.029-1.214z"/></svg><svg fill="none" viewBox="0 0 20 16" id="mail" xmlns="http://www.w3.org/2000/svg"><path fill-rule="evenodd" clip-rule="evenodd" d="M14.939 0c1.341 0 2.631.471 3.58 1.316C19.469 2.16 20 3.298 20 4.49v7.022C20 13.991 17.73 16 14.939 16H5.06C2.269 16 0 13.991 0 11.511V4.49C0 2.009 2.259 0 5.06 0h9.879zm1.591 5.813l.08-.07a.63.63 0 00-.011-.89.885.885 0 00-.529-.23.819.819 0 00-.561.177L11 8a1.72 1.72 0 01-2 0L4.5 4.8c-.311-.204-.741-.178-1 .062-.27.24-.3.622-.071.89l.131.115 4.55 3.155a3.4 3.4 0 001.95.605c.709 0 1.4-.214 1.959-.605l4.511-3.209z" fill="#76A713"/></svg><svg fill="none" viewBox="0 0 14 16" id="map" xmlns="http://www.w3.org/2000/svg"><path fill-rule="evenodd" clip-rule="evenodd" d="M0 6.654C0 2.974 3.075 0 6.795 0c3.73 0 6.805 2.974 6.805 6.654 0 1.855-.674 3.576-1.784 5.035a17.65 17.65 0 01-4.433 4.113c-.389.254-.74.274-1.167 0a17.312 17.312 0 01-4.432-4.113C.674 10.23 0 8.51 0 6.654zm4.555.207c0 1.233 1.006 2.203 2.24 2.203 1.234 0 2.25-.97 2.25-2.203a2.26 2.26 0 00-2.25-2.24 2.25 2.25 0 00-2.24 2.24z" fill="#76A713"/></svg><svg fill="none" viewBox="0 0 15 15" id="search" xmlns="http://www.w3.org/2000/svg"><path d="M7.08 13.158A6.08 6.08 0 107.078 1a6.08 6.08 0 000 12.158zM11.308 11.623L13.69 14" stroke="#000" stroke-width="1.5" stroke-linecap="round" stroke-linejoin="round"/></svg><svg viewBox="0 0 15 11" id="twitter" xmlns="http://www.w3.org/2000/svg"><path d="M14.354 1.306a5.564 5.564 0 01-1.595.437A2.785 2.785 0 0013.981.207c-.545.324-1.141.55-1.763.673a2.775 2.775 0 00-4.73 2.532 7.881 7.881 0 01-5.721-2.9 2.775 2.775 0 00.859 3.706 2.766 2.766 0 01-1.257-.348v.035a2.778 2.778 0 002.227 2.722c-.41.11-.839.127-1.255.048a2.778 2.778 0 002.593 1.928 5.571 5.571 0 01-4.109 1.15A7.852 7.852 0 005.08 11c5.105 0 7.898-4.23 7.898-7.898 0-.12-.004-.24-.009-.359a5.639 5.639 0 001.385-1.437z"/></svg></svg>