<svg width="24" height="20" viewBox="0 0 24 20" fill="none" xmlns="http://www.w3.org/2000/svg">
<path d="M1 6L2.49876 6.2594L3.19265 14.5263C3.24813 15.2015 3.81233 15.7196 4.48965 15.7174H12.3502C12.9965 15.7189 13.5449 15.2433 13.6364 14.6034L14.3202 9.87803C14.3966 9.34986 14.0298 8.85988 13.5023 8.78351C13.4562 8.77702 2.73942 8.77342 2.73942 8.77342" stroke="black" stroke-width="1.5" stroke-linecap="round" stroke-linejoin="round"/>
<path d="M9.19629 11.4365H11.1944" stroke="black" stroke-width="1.5" stroke-linecap="round" stroke-linejoin="round"/>
<path fill-rule="evenodd" clip-rule="evenodd" d="M4.17323 18.2153C4.39012 18.2153 4.56521 18.3911 4.56521 18.6073C4.56521 18.8242 4.39012 19 4.17323 19C3.95635 19 3.78125 18.8242 3.78125 18.6073C3.78125 18.3911 3.95635 18.2153 4.17323 18.2153Z" fill="black" stroke="black" stroke-width="1.5" stroke-linecap="round" stroke-linejoin="round"/>
<path fill-rule="evenodd" clip-rule="evenodd" d="M12.3012 18.2153C12.518 18.2153 12.6939 18.3911 12.6939 18.6073C12.6939 18.8242 12.518 19 12.3012 19C12.0843 19 11.9092 18.8242 11.9092 18.6073C11.9092 18.3911 12.0843 18.2153 12.3012 18.2153Z" fill="black" stroke="black" stroke-width="1.5" stroke-linecap="round" stroke-linejoin="round"/>
<circle cx="17.5" cy="6.5" r="6.5" fill="#76A713"/>
<path d="M19.136 8.312C18.752 8.84 18.2133 9.104 17.52 9.104C16.8267 9.104 16.2853 8.84 15.896 8.312C15.512 7.784 15.32 7.08 15.32 6.2C15.32 5.32 15.512 4.616 15.896 4.088C16.2853 3.56 16.8267 3.296 17.52 3.296C18.2133 3.296 18.752 3.56 19.136 4.088C19.5253 4.616 19.72 5.32 19.72 6.2C19.72 7.08 19.5253 7.784 19.136 8.312ZM17.52 8.208C17.936 8.208 18.2533 8.03467 18.472 7.688C18.6907 7.34133 18.8 6.84533 18.8 6.2C18.8 5.55467 18.6907 5.05867 18.472 4.712C18.2533 4.36533 17.936 4.192 17.52 4.192C17.1093 4.192 16.792 4.36533 16.568 4.712C16.3493 5.05867 16.24 5.55467 16.24 6.2C16.24 6.84533 16.3493 7.34133 16.568 7.688C16.792 8.03467 17.1093 8.208 17.52 8.208Z" fill="white"/>
</svg>
