<svg width="15" height="10" viewBox="0 0 15 10" fill="none" xmlns="http://www.w3.org/2000/svg">
<path fill-rule="evenodd" clip-rule="evenodd" d="M8.47083 4.9945L8.4695 4.69942C8.45942 3.529 8.38883 2.48478 8.26717 1.82302C8.26717 1.81109 8.13442 1.15477 8.04992 0.936292C7.91717 0.620525 7.67717 0.352492 7.37625 0.182667C7.13533 0.0615001 6.88267 0 6.61808 0C6.41017 0.00964167 6.06717 0.114284 5.82243 0.202017L5.61903 0.279967C4.27177 0.815125 1.69634 2.5638 0.709992 3.63317L0.637275 3.70792L0.312725 4.05817C0.108183 4.32625 0 4.65392 0 5.00642C0 5.32217 0.0963583 5.638 0.289083 5.89317C0.346783 5.97583 0.439717 6.08192 0.522442 6.1715L0.838333 6.50217C1.92538 7.60358 4.27904 9.1485 5.49902 9.66033C5.49902 9.67142 6.25717 9.98808 6.61808 10H6.66625C7.21992 10 7.73717 9.68425 8.00175 9.17383C8.074 9.03433 8.14333 8.761 8.196 8.521L8.29083 8.06775C8.399 7.33892 8.47083 6.22083 8.47083 4.9945ZM13.7472 6.26525C14.4391 6.26525 15 5.69892 15 5.00033C15 4.30183 14.4391 3.73542 13.7472 3.73542L10.6646 4.00808C10.1219 4.00808 9.68192 4.45142 9.68192 5.00033C9.68192 5.54842 10.1219 5.99267 10.6646 5.99267L13.7472 6.26525Z" fill="white"/>
</svg>
