<svg width="15" height="10" viewBox="0 0 15 10" fill="none" xmlns="http://www.w3.org/2000/svg">
<path fill-rule="evenodd" clip-rule="evenodd" d="M6.52917 5.0055L6.5305 5.30058C6.54058 6.471 6.61117 7.51522 6.73283 8.17698C6.73283 8.18891 6.86558 8.84523 6.95008 9.06371C7.08283 9.37948 7.32283 9.64751 7.62375 9.81733C7.86467 9.9385 8.11733 10 8.38192 10C8.58983 9.99036 8.93283 9.88572 9.17757 9.79798L9.38097 9.72003C10.7282 9.18488 13.3037 7.4362 14.29 6.36683L14.3627 6.29208L14.6873 5.94183C14.8918 5.67375 15 5.34608 15 4.99358C15 4.67783 14.9036 4.362 14.7109 4.10683C14.6532 4.02417 14.5603 3.91808 14.4776 3.8285L14.1617 3.49783C13.0746 2.39642 10.721 0.851501 9.50098 0.339667C9.50098 0.328584 8.74283 0.0119167 8.38192 0H8.33375C7.78008 0 7.26283 0.31575 6.99825 0.826167C6.926 0.965667 6.85667 1.239 6.804 1.479L6.70917 1.93225C6.601 2.66108 6.52917 3.77917 6.52917 5.0055ZM1.25275 3.73475C0.560917 3.73475 0 4.30108 0 4.99967C0 5.69817 0.560917 6.26458 1.25275 6.26458L4.33542 5.99192C4.87808 5.99192 5.31808 5.54858 5.31808 4.99967C5.31808 4.45158 4.87808 4.00733 4.33542 4.00733L1.25275 3.73475Z" fill="white"/>
</svg>
